Coordinates
version=1
nRows=7
nColumns=40
inDegrees=yes

Units are S.I. units (second, meters, Newtons, ...)
If the header above contains a line with 'inDegrees', this indicates whether rotational values are in degrees (yes) or radians (no).

endheader
time	pelvis_tilt	pelvis_list	pelvis_rotation	pelvis_tx	pelvis_ty	pelvis_tz	hip_flexion_r	hip_adduction_r	hip_rotation_r	knee_angle_r	knee_angle_r_beta	ankle_angle_r	subtalar_angle_r	mtp_angle_r	hip_flexion_l	hip_adduction_l	hip_rotation_l	knee_angle_l	knee_angle_l_beta	ankle_angle_l	subtalar_angle_l	mtp_angle_l	lumbar_extension	lumbar_bending	lumbar_rotation	arm_flex_r	arm_add_r	arm_rot_r	elbow_flex_r	pro_sup_r	wrist_flex_r	wrist_dev_r	arm_flex_l	arm_add_l	arm_rot_l	elbow_flex_l	pro_sup_l	wrist_flex_l	wrist_dev_l
      0.20000000	     12.02739071	      8.83373483	     -6.40166044	     -1.00414207	      0.98970931	      0.23524656	    -17.60679873	    -16.53399333	    -11.61412175	     47.63505782	      0.83138860	    -13.64757950	      0.00000000	      0.00000000	      1.61182806	     10.73365052	     -4.31777722	      8.99239729	      0.15694694	     -6.78736195	      0.00000000	      0.00000000	    -22.06771083	    -12.11078958	      5.05367875	     -2.16224608	     -7.02372017	     -1.28767987	     35.35238322	     86.55938010	    -14.33034641	     -3.61898831	     -8.77003937	     -7.66111451	      8.74988269	     30.08607600	     88.84569897	     -8.84425044	      1.84667449
      0.21000000	     11.87437331	      9.34977104	     -6.62881855	     -0.99300856	      0.99027006	      0.23421764	    -15.49710101	    -17.51113103	    -10.63332728	     51.06249371	      0.89120864	    -13.94336184	      0.00000000	      0.00000000	      1.08252331	     11.44916282	     -4.47290253	      8.86365200	      0.15469991	     -6.26898898	      0.00000000	      0.00000000	    -21.80288962	    -12.71236639	      4.55774346	     -2.04132208	     -6.83663135	     -0.84793432	     34.75521026	     87.15417844	    -12.67585185	     -2.15596557	     -8.76117976	     -7.73498678	      7.55805730	     30.86195089	     88.90101873	     -7.59981250	      3.11963496
      0.22000000	     11.62241651	      9.66405925	     -6.83226204	     -0.98217580	      0.99073354	      0.23313823	    -13.21663321	    -18.17035864	     -9.53914176	     54.33411165	      0.94830914	    -13.78365692	      0.00000000	      0.00000000	      0.64424261	     11.94807537	     -4.57174785	      8.74189448	      0.15257484	     -5.59964295	      0.00000000	      0.00000000	    -21.46350514	    -13.05889331	      4.40411048	     -2.08513218	     -6.67911364	     -0.34057603	     34.14615986	     87.25913760	    -12.50349244	     -1.93557475	     -8.45939170	     -7.80314531	      7.18558411	     31.27502985	     88.91561622	     -7.64058441	      3.16537396
      0.23000000	     11.41640992	      9.82652065	     -7.00536660	     -0.97164257	      0.99135705	      0.23222486	    -10.97289020	    -18.51925227	     -8.36653252	     57.35880914	      1.00110007	    -13.23540475	      0.00000000	      0.00000000	      0.09478331	     12.28535374	     -4.66040916	      8.51348365	      0.14858832	     -4.96321850	      0.00000000	      0.00000000	    -21.24057446	    -13.24660164	      4.19616265	     -2.04335551	     -6.55690390	      0.31024797	     33.57028093	     87.34093108	    -12.24636823	     -1.72666100	     -8.14155643	     -7.86864949	      6.79074423	     31.72817844	     88.92448517	     -7.71804574	      3.17675591
      0.24000000	     11.22610066	      9.84410531	     -7.16289349	     -0.96133043	      0.99206440	      0.23138426	     -8.74425424	    -18.61199025	     -7.21068421	     60.13424389	      1.04954055	    -12.34760152	      0.00000000	      0.00000000	     -0.50027773	     12.46876105	     -4.73123443	      8.24618113	      0.14392301	     -4.39502008	      0.00000000	      0.00000000	    -21.05932924	    -13.26968282	      4.00710827	     -1.95420713	     -6.47463556	      1.05441950	     32.97721892	     87.42028460	    -11.95382459	     -1.53273396	     -7.80932317	     -7.91100216	      6.36009259	     32.22687257	     88.93703400	     -7.82402292	      3.12675711
      0.25000000	     11.04751941	      9.74768169	     -7.31145868	     -0.95123527	      0.99286671	      0.23066914	     -6.53686775	    -18.48619415	     -6.09434899	     62.63492302	      1.09318563	    -11.21309842	      0.00000000	      0.00000000	     -1.12726440	     12.52595887	     -4.80655355	      7.94658372	      0.13869405	     -3.87889212	      0.00000000	      0.00000000	    -20.92787020	    -13.16534407	      3.80260174	     -1.80709065	     -6.41699397	      1.88332421	     32.39394627	     87.49920628	    -11.65401637	     -1.35714465	     -7.46746097	     -7.93872066	      5.90255993	     32.75088404	     88.94407670	     -7.97145122	      3.00365537
      0.26000000	     11.20917219	      9.37418680	     -7.21762594	     -0.94107596	      0.99443235	      0.22969018	     -4.98753613	    -17.99428804	     -5.42825929	     64.59275046	      1.12735617	     -9.97497571	      0.00000000	      0.00000000	     -2.26424068	     12.33740856	     -4.38652078	      7.51286924	      0.13112430	     -3.49217012	      0.00000000	      0.00000000	    -21.25753930	    -12.69744566	      3.55797470	     -1.82778188	     -6.37357857	      2.33119943	     32.12144728	     87.63762120	    -11.53265044	     -1.28374775	     -6.95474726	     -8.00568497	      5.87595616	     33.22824515	     88.93929242	     -8.00510688	      2.89198664
